<?xml version="1.0" encoding="utf-8"?>
<!-- Generator: Adobe Illustrator 25.3.1, SVG Export Plug-In . SVG Version: 6.00 Build 0)  -->
<svg version="1.1" id="Layer_1" xmlns="http://www.w3.org/2000/svg" xmlns:xlink="http://www.w3.org/1999/xlink" x="0px" y="0px"
	 viewBox="0 0 16 16" style="enable-background:new 0 0 16 16;" xml:space="preserve">
<style type="text/css">
	.st0{stroke:#000000;stroke-miterlimit:10;}
</style>
<g>
	<path d="M10,1c0.6,0,1,0.4,1,1v8c0,0.6-0.4,1-1,1H2c-0.6,0-1-0.4-1-1V2c0-0.6,0.4-1,1-1H10 M10,0H2C0.9,0,0,0.9,0,2v8
		c0,1.1,0.9,2,2,2h8c1.1,0,2-0.9,2-2V2C12,0.9,11.1,0,10,0L10,0z"/>
</g>
<g>
	<path d="M14,4.9c0.6,0,1,0.4,1,1V14c0,0.6-0.4,1-1,1H5.9c-0.6,0-1-0.4-1-1V5.9c0-0.6,0.4-1,1-1H14 M14,3.9H5.9c-1.1,0-2,0.9-2,2V14
		c0,1.1,0.9,2,2,2H14c1.1,0,2-0.9,2-2V5.9C16,4.8,15.1,3.9,14,3.9L14,3.9z"/>
</g>
<g>
	<polygon points="2,10.9 0.8,9.9 0.8,2.3 1.8,1 10.2,1 11,1.8 11,3.8 5.7,3.8 3.9,5.3 3.9,10.9 	"/>
	<path d="M10,1.5L10.5,2v1.3H5.9H5.5L5.3,3.6L3.8,4.8L3.4,5.1v0.5v4.9H2.2L1.3,9.7V2.5l0.7-1H10 M10.4,0.5H1.5L0.3,2.2v8l1.5,1.3
		h2.7V5.5l1.5-1.2h5.6V1.6L10.4,0.5L10.4,0.5z"/>
</g>
<g>
	<polygon points="6.1,15 4.8,14 5,11.9 11.9,11.7 12.2,4.9 14.1,4.9 14.9,5.6 14.9,14.3 13.9,15.1 	"/>
	<path d="M13.9,5.4l0.5,0.4v8.3l-0.7,0.5l-7.5-0.1l-0.9-0.7l0.2-1.3l5.9-0.2l0.9,0l0-0.9l0.3-5.9H13.9 M14.3,4.4h-2.6l-0.3,6.9
		l-6.8,0.2l-0.3,2.8l1.6,1.3l8.2,0.1l1.3-1V5.3L14.3,4.4L14.3,4.4z"/>
</g>
<path class="st0" d="M-8.9-3.1"/>
</svg>
