<?xml version="1.0" encoding="utf-8"?>
<!-- Generator: Adobe Illustrator 25.3.1, SVG Export Plug-In . SVG Version: 6.00 Build 0)  -->
<svg version="1.1" id="Layer_1" xmlns="http://www.w3.org/2000/svg" xmlns:xlink="http://www.w3.org/1999/xlink" x="0px" y="0px"
	 viewBox="0 0 16 16" style="enable-background:new 0 0 16 16;" xml:space="preserve">
<g>
	<path d="M10,1c0.6,0,1,0.4,1,1v8c0,0.6-0.4,1-1,1H2c-0.6,0-1-0.4-1-1V2c0-0.6,0.4-1,1-1H10 M10,0H2C0.9,0,0,0.9,0,2v8
		c0,1.1,0.9,2,2,2h8c1.1,0,2-0.9,2-2V2C12,0.9,11.1,0,10,0L10,0z"/>
</g>
<g>
	<path d="M14,4.9c0.6,0,1,0.4,1,1V14c0,0.6-0.4,1-1,1H5.9c-0.6,0-1-0.4-1-1V5.9c0-0.6,0.4-1,1-1H14 M14,3.9H5.9c-1.1,0-2,0.9-2,2V14
		c0,1.1,0.9,2,2,2H14c1.1,0,2-0.9,2-2V5.9C16,4.8,15.1,3.9,14,3.9L14,3.9z"/>
</g>
</svg>
